# xmcd
#
# Track frame offsets:
#	150
#	18425
#	36037
#	60620
#	78812
#	85512
#	108742
#	122230
#	138010
#	159935
#	177627
#	189650
#	209377
#	220897
#	240942
#	258125
#	269885
#
# Disc length: 3757 seconds
#
# Revision: 0
# Processed by: cddbd v1.5.2PL0 Copyright (c) Steve Scherf et al.
# Submitted via: dBpowerAMP V4.0
#
DISCID=e60eab11
DTITLE=Lighnin´Hopkins - Blues Legends
DYEAR=2007
DGENRE=Blues
TTITLE0=Shake that thing
TTITLE1=I´m leaving you now
TTITLE2=Walk a long time
TTITLE3=Bring me my shotgun
TTITLE4=Just Pickin´and singin´
TTITLE5=Last night
TTITLE6=Mojo hand
TTITLE7=Coffee for mamam
TTITLE8=Awful dreams
TTITLE9=Black mare trot
TTITLE10=Have you ever loved a woman
TTITLE11=Glory be
TTITLE12=Sometimes she will
TTITLE13=Shine on moon
TTITLE14=Santa
TTITLE15=Just sitting down thinking
TTITLE16=Lonesome dog blues
EXTD=
EXTT0=
EXTT1=
EXTT2=
EXTT3=
EXTT4=
EXTT5=
EXTT6=
EXTT7=
EXTT8=
EXTT9=
EXTT10=
EXTT11=
EXTT12=
EXTT13=
EXTT14=
EXTT15=
EXTT16=
PLAYORDER=
